<?xml version="1.0" encoding="UTF-8"?>
<svg class="icon" width="24" height="24" p-id="5688" t="1778488401685" version="1.1" viewBox="0 0 122.88 122.88" xmlns="http://www.w3.org/2000/svg" xmlns:xlink="http://www.w3.org/1999/xlink">
 <defs>
  <linearGradient id="linearGradient3" x1="113.24" x2="54.909" y1="81.956" y2="-73.646" gradientUnits="userSpaceOnUse">
   <stop stop-color="#0751ff" offset="0"/>
   <stop stop-color="#0751ff" stop-opacity="0" offset="1"/>
  </linearGradient>
 </defs>
 <path d="m41.017 20.205-9.7856-1.9954a2.764 2.8999 0 0 0-0.59728-0.12179 12.474 13.087 0 0 0-12.307 6.3461l-7.9873-1.6287a4.1623 4.3669 0 0 0-1.587 8.5666l7.9873 1.6287a12.474 13.087 0 0 0 9.0638 10.697 2.764 2.8999 0 0 0 0.67989 0.13863l9.7666 1.9915a2.764 2.8999 0 0 0 3.2418-2.3001l3.6864-19.9a2.764 2.8999 0 0 0-2.1632-3.4159zm72.586 5.6477-46.551-9.4922a62.214 65.271 0 0 0-18.721 4.6232l-5.1301 27.693s3.312 3.159 7.2472 6.549a25.661 26.922 0 0 0 7.9928 4.6255l9.9825 2.0355c2.1431 1.2464 3.6751 3.406 4.1845 5.9245a2.3626 2.4788 0 0 0-3.0546 2.1791l-1.3622 7.3533a2.5893 2.7166 0 0 0 1.9275 3.2641l4.8928 0.99767 0.65894 8.8308c0.01252 2.1749-2.5153 4.074-4.5604 6.0715-3.9412 4.0462-0.55401 7.2621-0.55401 7.2621l24.419 4.9793c2.7324 0.55714 2.6786-3.9577 2.6786-3.9577l-0.73283-31.178s-0.59315-5.9462 6.352-4.53a10.169 10.669 0 0 0 10.436-4.3962l5.4178-29.246a7.5477 7.9187 0 0 0-5.5238-9.5876zm2.3474 7.3694 0.1231 2.6818-14.234-2.9023-0.0659-2.6701zm-63.293-5.1572-0.37781-3.0866 63.441 12.936 0.80475 3.1667-63.86-13.022z" fill="url(#linearGradient3)" stroke="#ff0029" stroke-miterlimit="2.2" stroke-width="1.792" p-id="5689"/>
</svg>
