<?xml version="1.0" encoding="UTF-8"?>
<svg width="64" height="64" xmlns="http://www.w3.org/2000/svg">
  <rect x="6" y="8" width="16" height="12" rx="2" fill="#888" opacity="0.3"/>
  <line x1="6" y1="8" x2="22" y2="20" stroke="#c0392b" stroke-width="2.5"/>
  <rect x="6" y="24" width="16" height="12" rx="2" fill="#888" opacity="0.3"/>
  <line x1="6" y1="24" x2="22" y2="36" stroke="#c0392b" stroke-width="2.5"/>
  <rect x="26" y="8" width="16" height="12" rx="2" fill="#888" opacity="0.3"/>
  <line x1="26" y1="8" x2="42" y2="20" stroke="#c0392b" stroke-width="2.5"/>
  <rect x="26" y="24" width="16" height="12" rx="2" fill="#3498db" stroke="#2471a3" stroke-width="1.5"/>
  <rect x="46" y="8" width="16" height="12" rx="2" fill="#888" opacity="0.3"/>
  <line x1="46" y1="8" x2="62" y2="20" stroke="#c0392b" stroke-width="2.5"/>
  <rect x="46" y="24" width="16" height="12" rx="2" fill="#888" opacity="0.3"/>
  <line x1="46" y1="24" x2="62" y2="36" stroke="#c0392b" stroke-width="2.5"/>
  <rect x="16" y="44" width="16" height="12" rx="2" fill="#888" opacity="0.3"/>
  <line x1="16" y1="44" x2="32" y2="56" stroke="#c0392b" stroke-width="2.5"/>
  <rect x="36" y="44" width="16" height="12" rx="2" fill="#888" opacity="0.3"/>
  <line x1="36" y1="44" x2="52" y2="56" stroke="#c0392b" stroke-width="2.5"/>
</svg>
