<?xml version="1.0" encoding="UTF-8"?>
<svg class="icon" width="24" height="24" p-id="8739" t="1778489641257" version="1.1" viewBox="0 0 122.88 122.88" xmlns="http://www.w3.org/2000/svg">
 <path d="m0 0h123.28v122.88h-123.28z" fill="#f7f8ff" stroke-width=".12019" p-id="8740"/>
 <g stroke-width=".1493">
  <path d="m105.48 58.601c0 0.63723-0.0297 1.2596-0.0445 1.8821-0.50549 11.855-5.7239 22.481-13.827 30.083-7.8797 7.4097-18.495 11.944-30.181 11.944-11.686 0-22.286-4.5495-30.181-11.944a43.905 43.763 0 0 1-13.812-30.083c-0.02974-0.62241-0.0446-1.2448-0.0446-1.8821 0-12.122 4.9359-23.103 12.905-31.046 7.9689-7.9432 18.971-12.848 31.132-12.848 24.338 0 44.052 19.665 44.052 43.895z" fill="#b5d8fe" p-id="8742"/>
  <path d="m61.423 93.619c-8.9605 0-17.509-3.3862-24.07-9.5318a34.91 34.797 0 0 1-11.011-23.982 32.217 32.113 0 0 1-0.035682-1.5042c0-9.351 3.6559-18.143 10.293-24.76 6.6278-6.605 15.443-10.243 24.824-10.243 19.372 0 35.131 15.701 35.131 35.003 0 0.34529-0.01338 0.68762-0.02379 1.0255l-0.01487 0.52757c-0.4029 9.1435-4.3175 17.642-11.027 23.938a34.926 34.814 0 0 1-24.066 9.5273z" fill="#fff" p-id="8743"/>
  <path d="m61.423 84.727a26.147 26.063 0 0 1-17.961-7.1192 26.033 25.949 0 0 1-8.2068-17.881 26.045 25.96 0 0 1 7.6522-19.6 26.016 25.932 0 0 1 18.516-7.6379c14.451 0 26.211 11.713 26.211 26.112 0 0.19117-0.01933 0.75875-0.01933 0.75875l-0.01487 0.5246c-0.29735 6.6954-3.2188 13.035-8.2246 17.733a26.055 25.971 0 0 1-17.952 7.1103z" fill="#b5d8fe" p-id="8744"/>
  <path d="m61.423 75.836a17.256 17.201 0 0 1-11.852-4.7066 17.158 17.103 0 0 1-5.4043-11.781 17.184 17.128 0 0 1 5.0489-12.934 17.154 17.099 0 0 1 12.208-5.0326c9.5344 0 17.291 7.7253 17.291 17.22l-0.02974 1.0136c-0.19179 4.2902-2.1186 8.4277-5.4221 11.528a17.181 17.125 0 0 1-11.839 4.6933z" fill="#fff" p-id="8745"/>
  <path d="m61.423 66.944c-2.1245 0-4.1628-0.81506-5.7418-2.294a8.2811 8.2544 0 0 1-2.6033-5.6847c-0.0059-0.15264-0.01041-0.25637-0.01041-0.36456 0-2.2585 0.84892-4.2976 2.4561-5.9025a8.1859 8.1595 0 0 1 5.8994-2.4259c4.5791 0 8.3108 3.6767 8.3703 8.2188l-0.02676 0.85804c-0.08326 1.8791-1.0154 3.8145-2.6196 5.3201a8.3079 8.281 0 0 1-5.7239 2.2748z" fill="#fff" p-id="8747"/>
  <path d="m15.938 60.545c1.0541 24.339 21.192 43.45 45.479 43.45 24.574 0 44.486-19.394 45.494-43.48l0.0297-0.62241c0.0148-0.42976 0.0148-0.85952 0.0148-1.2893 0-25.129-20.533-45.377-45.539-45.377-25.135 0-45.524 20.322-45.524 45.377 0 0.65205 0.01487 1.3041 0.0446 1.9413zm2.9586-0.4594h5.9618v0.08892c0.37168 8.6989 3.7614 16.82 9.6638 23.163l-4.2075 4.1939a42.202 42.066 0 0 1-11.403-27.119c0-0.10374-0.01487-0.20747-0.01487-0.32602zm14.882 0c0.34195 6.3575 2.8248 12.285 7.062 16.953l-4.2074 4.1939c-5.3522-5.7944-8.4595-13.219-8.8014-21.147zm26.152 32.01c-7.8797-0.32602-15.328-3.4233-21.201-8.773l4.2074-4.1939c4.7278 4.2531 10.704 6.7132 16.993 7.0392zm-5.3671-33.225c0.02974-0.15412-0.20963-5.7973 5.3671-6.9503 0.47575-0.11855 0.98124-0.16301 1.4867-0.16301 3.8833 0 6.8836 3.2262 6.8836 6.6835l-0.01487 0.8447c-0.20814 3.7256-4.1034 6.8688-8.3554 5.9574a6.7646 6.7428 0 0 1-5.3671-6.3723zm1.0407 7.632c1.2786 0.94844 2.7653 1.5708 4.3264 1.808v5.9722c-3.137-0.29639-6.1105-1.5264-8.5636-3.5566zm7.2998 1.808c1.5759-0.23711 3.0478-0.8447 4.3413-1.808l4.2372 4.2235a15.611 15.56 0 0 1-8.5784 3.5566zm6.4524-3.8827c0.99611-1.3041 1.6354-2.8009 1.8287-4.3421h5.9767c-0.25274 3.1121-1.5016 6.0759-3.583 8.5507zm1.7989-7.3059a9.3634 9.3332 0 0 0-1.8138-4.3124l4.2521-4.2383c1.9774 2.3711 3.2708 5.335 3.5682 8.5507zm-3.9101-6.4019a9.5805 9.5496 0 0 0-4.3413-1.808v-5.987c3.2559 0.3112 6.2145 1.6005 8.5933 3.5566zm-7.3147-1.808c-1.5908 0.22229-3.0627 0.82988-4.3413 1.7931l-4.2372-4.2235c2.4382-2.0302 5.4117-3.2602 8.5784-3.5418zm-6.4375 3.8827c-0.96637 1.2745-1.5759 2.7416-1.7989 4.3272h-5.9915c0.28248-3.1417 1.5165-6.1056 3.5533-8.5507zm-1.7989 7.2911a9.6192 9.5881 0 0 0 1.8138 4.3272l-4.2372 4.2235a15.739 15.688 0 0 1-3.5682-8.5507zm-2.4382 12.745c3.0181 2.5786 6.7498 4.1198 10.675 4.431v5.9425c-5.5158-0.32603-10.719-2.4896-14.897-6.1648zm13.648 4.431c3.9547-0.3112 7.6715-1.8524 10.69-4.431l4.2074 4.1939c-4.148 3.69-9.3664 5.8536-14.897 6.1797zm12.801-6.5057c2.6166-3.038 4.1628-6.7428 4.4305-10.67h5.9618c-0.29735 5.5276-2.468 10.714-6.1997 14.849zm4.4156-13.634c-0.29734-4.0457-1.9179-7.7357-4.4156-10.655l4.1926-4.179c3.583 4.0012 5.8577 9.1583 6.1997 14.834zm-6.5268-12.73a18.467 18.407 0 0 0-10.69-4.4162v-5.9574c5.709 0.34085 10.898 2.6082 14.912 6.1648zm-13.663-4.431c-3.9547 0.3112-7.6567 1.8376-10.675 4.431l-4.2223-4.2087c4.148-3.7048 9.3367-5.8388 14.897-6.1648zm-12.771 6.5205a18.48 18.42 0 0 0-4.4453 10.64h-5.9618a24.576 24.496 0 0 1 6.1699-14.864zm-4.4305 13.604c0.29735 3.9568 1.8435 7.6764 4.4156 10.67l-4.2075 4.1939a24.516 24.437 0 0 1-6.1699-14.864zm-6.1105 25.341c6.4227 5.9129 14.644 9.2917 23.312 9.6326v5.9425c-10.244-0.35566-19.967-4.3717-27.519-11.381zm26.285 0.74096c6.3335-0.32602 12.295-2.8008 17.008-7.0392l4.2074 4.1939c-5.828 5.3498-13.306 8.447-21.216 8.773zm19.104-9.1287c4.2669-4.6977 6.7498-10.625 7.062-16.953h5.9618a33.347 33.24 0 0 1-8.8163 21.147zm7.0768-19.917c-0.35682-6.5057-2.9735-12.404-7.0768-16.938l4.2223-4.2087c5.159 5.6313 8.4446 13.011 8.7866 21.147zm-9.1731-19.028a27.6 27.511 0 0 0-17.008-7.054v-5.9129c8.1622 0.34084 15.581 3.6159 21.231 8.7582zm6.3186-6.2982c-6.1848-5.6906-14.332-9.2917-23.327-9.6474v-5.9129c10.63 0.34085 20.264 4.6088 27.534 11.366zm-26.3-0.74096a27.356 27.268 0 0 0-17.008 7.0244l-4.2074-4.1939c5.8429-5.3646 13.291-8.4322 21.216-8.7582zm-19.104 9.1139a27.402 27.313 0 0 0-7.0471 16.953h-5.9469c0.32708-7.8987 3.4195-15.323 8.7866-21.147zm22.078 60.833v-5.9425c8.6974-0.32602 16.919-3.7196 23.327-9.6326l4.2074 4.1939a42.268 42.131 0 0 1-27.534 11.381zm41.034-40.575c-0.41629 10.181-4.4602 19.71-11.403 27.105l-4.2075-4.1939c5.8875-6.3427 9.2921-14.449 9.6786-23.133v-0.11855h5.9469zm-5.9321-3.3047c-0.35681-8.9509-3.9696-17.072-9.6786-23.237l4.2075-4.1939c6.7795 7.2466 11.061 16.85 11.403 27.431zm-38.075-40.901v5.9277c-8.7271 0.34084-16.919 3.7345-23.327 9.6326l-4.1926-4.179c7.5377-7.054 17.216-11.04 27.519-11.381zm-29.631 13.456 4.2074 4.1939c-5.9172 6.4019-9.3218 14.553-9.6638 23.252h-5.9469a42.149 42.013 0 0 1 11.403-27.445z" fill="#077af1" p-id="8748"/>
 </g>
 <rect x="7.9892" y="5.5302" width="108.08" height="105.74" fill="none" stroke="#ff0029" stroke-linejoin="round" stroke-miterlimit="2.2" stroke-width="5.4118" style="paint-order:stroke fill markers"/>
</svg>
